Simulation
nRows=23
nColumns=15
endheader
time  TH_x TH_y TH_z SC_y  SC_z  SC_x  AC_y  AC_z  AC_x  GH_y  GH_z  GH_yy  EL_x  PS_y
1.549999999999999  0.000000  0.000000  0.000000  -34.59091702267686  7.31208260766833  21.55469572359495  59.07067014209715  8.124536698309022  -3.999372645659813  16.557869006638015  56.94631042722799  -18.32545611005307  17.926690939849383  0.000000
1.5809999999999989  0.000000  0.000000  0.000000  -34.95174990492072  7.600874025747797  21.69677128603689  59.19005722045085  8.466407831564073  -3.4218613100798496  16.11686945928194  57.59167892726807  -18.18757297417988  17.91061176879029  0.000000
1.611999999999999  0.000000  0.000000  0.000000  -35.28159968305815  7.853913213365066  21.805861609097864  59.29494730316183  8.78183810586137  -2.898647082644415  15.73294499445668  58.156505559635214  -18.06646855258863  17.90374113375242  0.000000
1.642999999999999  0.000000  0.000000  0.000000  -35.57750672688694  8.067030030295637  21.884813156142176  59.38643198532279  9.06597799106058  -2.4401847963070176  15.410394537745223  58.629840474902835  -17.962011022138956  17.907591983340495  0.000000
1.6739999999999988  0.000000  0.000000  0.000000  -35.83856776429126  8.238977661634078  21.936560459656956  59.46424842327042  9.314240427593974  -2.0545192489381767  15.155591605647135  59.00026147283346  -17.876233712246794  17.92181367695144  0.000000
1.7049999999999987  0.000000  0.000000  0.000000  -36.064062350807376  8.370791167249582  21.96320121891103  59.52668878915098  9.522089863003327  -1.7475274850504612  14.976300739665625  59.25686062591696  -17.81255421060769  17.944139594532928  0.000000
1.7359999999999989  0.000000  0.000000  0.000000  -36.251292322826764  8.464373877859149  21.965247160408435  59.57106352219883  9.684803806511947  -1.5236922056134616  14.88001770526325  59.390365740626955  -17.775645802658975  17.97103112770689  0.000000
1.7669999999999988  0.000000  0.000000  0.000000  -36.39453858594061  8.520796308598177  21.941239609509307  59.594519857201526  9.797912878169921  -1.3869342206614912  14.87238636002725  59.393864721137696  -17.771864366126067  17.99857730594588  0.000000
1.7979999999999987  0.000000  0.000000  0.000000  -36.485576139472556  8.539299503344834  21.887679834302265  59.594905833563736  9.858513047407998  -1.3404649938313633  14.95623416145453  59.26298279141202  -17.809720835571145  18.023247934242914  0.000000
1.8289999999999988  0.000000  0.000000  0.000000  -36.51557381083734  8.517291126547466  21.80081271545372  59.571488260552115  9.865743955318678  -1.386467932455096  15.131401563260027  58.99549730555792  -17.899863585537446  18.04236729155491  0.000000
1.8599999999999988  0.000000  0.000000  0.000000  -36.47750638829498  8.450700567100053  21.678833493999466  59.52554378527751  9.820502840586569  -1.5260121384953567  15.395199209576578  58.59115416082699  -18.054097397264236  18.054609898104026  0.000000
1.8909999999999987  0.000000  0.000000  0.000000  -36.367994392245286  8.335093097690718  21.522874999075917  59.45997447522499  9.724694995941904  -1.7588888175262296  15.743229732328063  58.051836282255856  -18.283198234437158  18.06046329803038  0.000000
1.9219999999999986  0.000000  0.000000  0.000000  -36.18801787942004  8.167166534231743  21.336783012712946  59.37819182281503  9.579882425306273  -2.083642927825219  16.170269886923542  57.38226601921069  -18.593732066977932  18.062618481332596  0.000000
1.9529999999999987  0.000000  0.000000  0.000000  -35.94280281879678  7.945879649113517  21.125509880413492  59.28275215637395  9.386593120078265  -2.497510350053041  16.67104913297616  56.590721438054004  -18.98532167757693  18.06619564084311  0.000000
1.9839999999999987  0.000000  0.000000  0.000000  -35.64091513787974  7.673033579536004  20.89305370026043  59.17443880409937  9.144763467154538  -2.9958680518336434  17.24052619072641  55.68923575161873  -19.449650652546215  18.07817335438883  0.000000
2.014999999999999  0.000000  0.000000  0.000000  -35.29317161401396  7.35290034049631  20.64185835818549  59.05240732054599  8.854458054109774  -3.571868386371608  17.87364630851502  54.6930297636013  -19.9721209074175  18.10586126341451  0.000000
2.0459999999999985  0.000000  0.000000  0.000000  -34.911551192108845  6.9910522919454605  20.373368965116985  58.915280360122914  8.516683729703878  -4.216516333265271  18.564769033095388  53.61945900767809  -20.535314736792134  18.154818468139435  0.000000
2.0769999999999986  0.000000  0.000000  0.000000  -34.50825400296291  6.5934287224742  20.088836838698686  58.76212694576121  8.133711551969865  -4.919128092887811  19.30710653932032  52.48661053106618  -21.122502171667023  18.227143731399103  0.000000
2.1079999999999988  0.000000  0.000000  0.000000  -34.095146927637124  6.165537642920931  19.78956742767227  58.593059509799424  7.708817667685197  -5.668123721737337  20.092604496206743  51.31215500185634  -21.719811940243996  18.321122102301658  0.000000
2.1389999999999985  0.000000  0.000000  0.000000  -33.68323533589024  5.7122830702569924  19.476170982301184  58.40902827646785  7.246014224315832  -6.451228159384746  20.911925482512547  50.112510128649454  -22.31637161024388  18.432057907225644  0.000000
2.1699999999999986  0.000000  0.000000  0.000000  -33.282070930686714  5.238370711539509  19.147653223030872  58.21156510278555  6.749807630322298  -7.255163600142032  21.75423664946958  48.902359942420574  -22.903025919385307  18.553545084786872  0.000000
2.2009999999999983  0.000000  0.000000  0.000000  -32.899659722778914  4.748511609220693  18.800844125351677  58.002762953478054  6.225242246975438  -8.065137567289684  22.607119328921545  47.69428007168423  -23.47061424479078  18.6788174388229  0.000000
2.2319999999999984  0.000000  0.000000  0.000000  -32.54242938765118  4.247669905412199  18.43016573385439  57.78541699234847  5.6783245421811035  -8.864359558856236  23.45666024436858  46.498249040563984  -24.008781814742093  18.80172484003348  0.000000
